<?xml version="1.0" encoding="UTF-8"?>
<svg id="Layer_2" data-name="Layer 2" xmlns="http://www.w3.org/2000/svg" xmlns:xlink="http://www.w3.org/1999/xlink" viewBox="0 0 1159.1 268.56">
  <defs>
    <style>
      .cls-1 {
        fill: #1dc8db;
      }

      .cls-2 {
        fill: url(#linear-gradient);
      }
    </style>
    <linearGradient id="linear-gradient" x1="0" y1="134.28" x2="249.79" y2="134.28" gradientUnits="userSpaceOnUse">
      <stop offset="0" stop-color="#1bcedf"/>
      <stop offset="1" stop-color="#5b247a"/>
    </linearGradient>
  </defs>
  <g id="Layer_1-2" data-name="Layer 1">
    <g>
      <path class="cls-1" d="M326.95,215.71h-27.49v-85.51h-32.06v-21.38h91.61v21.38h-32.07v85.51Z"/>
      <path class="cls-1" d="M407.11,156.93c-6.41,0-13.03,1.53-19.85,4.58v54.21h-26.72v-80.93h23.67l1.53,9.93c8.75-7.64,17.92-11.45,27.48-11.45h6.87v23.67h-12.98Z"/>
      <path class="cls-1" d="M502.54,214.19c-19.65,2.03-37.46,3.05-53.44,3.05-6.92,0-12.47-2.08-16.64-6.26-4.18-4.17-6.26-9.72-6.26-16.64v-36.65c0-7.63,2.16-13.61,6.49-17.94,4.32-4.33,10.31-6.49,17.94-6.49h30.54c7.63,0,13.61,2.16,17.94,6.49,4.33,4.33,6.49,10.31,6.49,17.94v28.25h-52.68v6.11c0,1.53.51,2.8,1.53,3.82,1.02,1.02,2.29,1.53,3.82,1.53,10.08,0,24.84-.76,44.28-2.29v19.09ZM459.02,152.35c-4.07,0-6.11,2.04-6.11,6.11v8.4h25.96v-8.4c0-4.07-2.04-6.11-6.11-6.11h-13.74Z"/>
      <path class="cls-1" d="M564.38,155.4c-5.4,0-11.5,1.02-18.32,3.05v57.26h-26.72v-80.93h23.67l1.53,7.63c4.78-3.15,9.7-5.47,14.73-6.95,5.04-1.47,9.29-2.21,12.75-2.21h6.87c6.92,0,12.47,2.09,16.64,6.26,4.18,4.18,6.26,9.72,6.26,16.64v59.55h-26.72v-54.97c0-1.53-.51-2.8-1.53-3.82-1.02-1.02-2.29-1.53-3.82-1.53h-5.35Z"/>
      <path class="cls-1" d="M672.79,215.71l-1.53-7.63c-4.79,3.16-9.7,5.47-14.73,6.95-5.04,1.47-9.29,2.21-12.75,2.21h-6.87c-6.92,0-12.47-2.08-16.64-6.26-4.18-4.17-6.26-9.72-6.26-16.64v-35.12c0-7.64,2.16-13.61,6.49-17.94,4.32-4.33,10.31-6.49,17.94-6.49h31.3v-25.96h26.72v106.88h-23.67ZM651.41,195.1c5.4,0,11.5-1.02,18.33-3.05v-36.65h-22.9c-4.07,0-6.11,2.04-6.11,6.11v28.25c0,1.53.51,2.8,1.53,3.82,1.02,1.02,2.29,1.53,3.82,1.53h5.34Z"/>
      <path class="cls-1" d="M713.25,108.83h64.13c10.69,0,18.45,2.42,23.29,7.25,4.83,4.84,7.25,12.6,7.25,23.28v13.74c0,8.45-1.4,15.02-4.2,19.7-2.8,4.68-7.25,7.79-13.36,9.31l19.09,33.59h-29.78l-17.56-32.07h-21.38v32.07h-27.48v-106.88ZM780.43,139.37c0-6.11-3.05-9.16-9.16-9.16h-30.54v32.07h30.54c6.11,0,9.16-3.05,9.16-9.16v-13.74Z"/>
      <path class="cls-1" d="M825.47,136.31c18.63-2.03,35.43-3.05,50.39-3.05,6.92,0,12.47,2.09,16.64,6.26,4.17,4.18,6.26,9.72,6.26,16.64v59.55h-23.67l-1.53-7.63c-4.78,3.16-9.7,5.47-14.73,6.95-5.04,1.47-9.29,2.21-12.75,2.21h-5.34c-6.92,0-12.47-2.08-16.64-6.26-4.18-4.17-6.26-9.72-6.26-16.64v-6.87c0-6.92,2.08-12.47,6.26-16.64,4.17-4.17,9.72-6.26,16.64-6.26h31.3v-6.11c0-1.53-.51-2.8-1.53-3.82-1.02-1.02-2.29-1.53-3.82-1.53-6.62,0-13.92.31-21.91.92-7.99.61-14.43,1.07-19.32,1.37v-19.09ZM853.72,195.86c5.39,0,11.5-1.02,18.32-3.05v-9.16h-22.14c-1.53,0-2.8.51-3.82,1.53s-1.53,2.29-1.53,3.82v1.53c0,1.53.51,2.8,1.53,3.82,1.02,1.02,2.29,1.53,3.82,1.53h3.82Z"/>
      <path class="cls-1" d="M969.77,215.71l-1.53-7.63c-4.79,3.16-9.7,5.47-14.73,6.95-5.04,1.47-9.29,2.21-12.75,2.21h-6.87c-6.92,0-12.47-2.08-16.64-6.26-4.18-4.17-6.26-9.72-6.26-16.64v-35.12c0-7.64,2.16-13.61,6.49-17.94,4.32-4.33,10.31-6.49,17.94-6.49h31.3v-25.96h26.72v106.88h-23.67ZM948.39,195.1c5.4,0,11.5-1.02,18.33-3.05v-36.65h-22.9c-4.07,0-6.11,2.04-6.11,6.11v28.25c0,1.53.51,2.8,1.53,3.82,1.02,1.02,2.29,1.53,3.82,1.53h5.34Z"/>
      <path class="cls-1" d="M1012.51,136.31c18.63-2.03,35.43-3.05,50.39-3.05,6.92,0,12.47,2.09,16.64,6.26,4.17,4.18,6.26,9.72,6.26,16.64v59.55h-23.67l-1.53-7.63c-4.78,3.16-9.7,5.47-14.73,6.95-5.04,1.47-9.29,2.21-12.75,2.21h-5.34c-6.92,0-12.47-2.08-16.64-6.26-4.18-4.17-6.26-9.72-6.26-16.64v-6.87c0-6.92,2.08-12.47,6.26-16.64,4.17-4.17,9.72-6.26,16.64-6.26h31.3v-6.11c0-1.53-.51-2.8-1.53-3.82-1.02-1.02-2.29-1.53-3.82-1.53-6.62,0-13.92.31-21.91.92-7.99.61-14.43,1.07-19.32,1.37v-19.09ZM1040.77,195.86c5.39,0,11.5-1.02,18.32-3.05v-9.16h-22.14c-1.53,0-2.8.51-3.82,1.53s-1.53,2.29-1.53,3.82v1.53c0,1.53.51,2.8,1.53,3.82,1.02,1.02,2.29,1.53,3.82,1.53h3.82Z"/>
      <path class="cls-1" d="M1146.12,156.93c-6.41,0-13.03,1.53-19.85,4.58v54.21h-26.72v-80.93h23.67l1.53,9.93c8.75-7.64,17.92-11.45,27.48-11.45h6.87v23.67h-12.98Z"/>
    </g>
    <path class="cls-2" d="M124.9,183.47c-11.27,0-20.44-9.17-20.44-20.44s9.17-20.44,20.44-20.44,20.44,9.17,20.44,20.44-9.17,20.44-20.44,20.44ZM124.9,147.49c-8.57,0-15.54,6.97-15.54,15.54s6.97,15.54,15.54,15.54,15.54-6.97,15.54-15.54-6.97-15.54-15.54-15.54ZM249.79,267.84l-19.75-53.52-10.9,12.99-5.99-6.01c11.44-17.17,17.48-37.3,17.27-58.3-.52-51.8-42.22-97.15-93.51-104.46l-.7-9.01h17.01L124.91,0l-28.32,49.54h16.97l-.75,8.45c-22.88,2.19-44.3,12.09-61.26,28.66-20.45,19.95-32.17,47.79-32.17,76.39,0,21.48,6.46,41.49,17.53,58.17l-6.23,6.12-10.94-13.02L0,267.84l56.15-10.17-10.9-12.99,7.2-5.04c18.92,17.9,44.43,28.92,72.45,28.92s52.96-10.25,72.71-28.89l6.97,4.99-10.92,13.02,56.13,10.15ZM225.52,163.05c.2,19.67-5.37,38.54-15.91,54.71l-22.43-22.46c5.03-9.66,7.88-20.63,7.88-32.27,0-33.62-23.76-61.79-55.4-68.58l-2.37-30.9c48.48,7.44,87.73,50.42,88.22,99.5ZM142.5,131.34l-2.45-31.78c28.71,6.86,50.11,32.71,50.11,63.48,0,10.27-2.38,19.98-6.63,28.63l-22.83-22.85c.31-1.88.47-3.82.47-5.78,0-13.61-7.54-25.49-18.67-31.7ZM124.89,194.41c-17.3,0-31.37-14.07-31.37-31.37s14.07-31.37,31.37-31.37,31.39,14.07,31.39,31.37-14.09,31.37-31.39,31.37ZM137.87,196.9l25.89,18.54c-10.85,8.06-24.3,12.86-38.86,12.86s-27.58-4.65-38.36-12.52l26.46-18.49c3.74,1.29,7.74,2.01,11.9,2.01,4.57,0,8.94-.85,12.98-2.4ZM89.3,169.92l-22.75,22.28c-4.41-8.78-6.92-18.69-6.92-29.17,0-30.55,21.12-56.28,49.52-63.34l-2.84,32.22c-10.58,6.33-17.68,17.92-17.68,31.13,0,2.35.23,4.65.67,6.89ZM114.15,98.66l.44-5.03,2.74-31.11.42-4.9,1.14-12.99h-13.87l19.88-34.78,19.86,34.78h-13.86l1.03,13.32.39,4.96,2.35,30.65.39,4.99,2.33,30.42c-3.9-1.44-8.11-2.22-12.52-2.22-4.75,0-9.29.91-13.45,2.6l2.71-30.7ZM24.29,163.04c0-27.29,11.18-53.85,30.68-72.89,15.95-15.54,35.97-24.97,57.42-27.22l-2.79,31.65c-31.35,7-54.87,35.04-54.87,68.47,0,11.83,2.95,22.96,8.14,32.76l-22.38,21.92c-10.23-15.75-16.21-34.52-16.21-54.68ZM48.92,236.13l-10.87,7.61,8.93,10.63-39.4,7.13,13.86-37.57,8.9,10.61,9.45-9.24,3.53-3.48,22.1-21.64,3.59-3.51,21.79-21.33c3.05,8.44,9.16,15.44,16.97,19.65l-25.23,17.64-4.13,2.89-25.43,17.79-4.05,2.82ZM124.89,263.66c-26.38,0-50.4-10.22-68.35-26.88l25.77-18.04c11.82,9.06,26.59,14.46,42.58,14.46s31.13-5.53,43.02-14.79l25.64,18.35c-18.74,17.37-42.94,26.9-68.67,26.9ZM201.15,236.17l-4.02-2.87-25.33-18.13-4.1-2.92-24.79-17.76c7.69-4.41,13.61-11.56,16.44-20.11l21.76,21.79,3.57,3.56,22.1,22.15,3.51,3.51,9.16,9.17,8.93-10.64,13.86,37.57-39.4-7.13,8.9-10.61-10.58-7.57Z"/>
  </g>
</svg>