<?xml version="1.0" encoding="UTF-8"?>
<svg id="Layer_2" data-name="Layer 2" xmlns="http://www.w3.org/2000/svg" viewBox="0 0 1778.59 297.63">
  <defs>
    <style>
      .cls-1 {
        fill: #2aeaea;
      }

      .cls-2 {
        fill: #e1f8ff;
      }
    </style>
  </defs>
  <g id="Layer_1-2" data-name="Layer 1">
    <g>
      <g>
        <path class="cls-2" d="M388.53,254.66h-45.91V111.83h-53.56v-35.71h153.03v35.71h-53.56v142.83Z"/>
        <path class="cls-2" d="M522.44,156.47c-10.71,0-21.77,2.55-33.16,7.65v90.55h-44.63V119.48h39.53l2.55,16.58c14.62-12.76,29.93-19.13,45.91-19.13h11.48v39.53h-21.68Z"/>
        <path class="cls-2" d="M681.85,252.11c-32.82,3.4-62.58,5.1-89.27,5.1-11.57,0-20.83-3.48-27.8-10.46-6.97-6.97-10.46-16.24-10.46-27.8v-61.21c0-12.75,3.61-22.74,10.84-29.97,7.22-7.23,17.22-10.84,29.97-10.84h51.02c12.75,0,22.74,3.61,29.97,10.84,7.23,7.23,10.84,17.22,10.84,29.97v47.19h-87.99v10.2c0,2.55.85,4.68,2.55,6.37,1.7,1.7,3.82,2.55,6.38,2.55,16.83,0,41.49-1.28,73.97-3.83v31.88ZM609.16,148.81c-6.8,0-10.2,3.4-10.2,10.2v14.03h43.36v-14.03c0-6.8-3.4-10.2-10.21-10.2h-22.95Z"/>
        <path class="cls-2" d="M785.15,153.91c-9.01,0-19.22,1.7-30.61,5.1v95.65h-44.63V119.48h39.53l2.55,12.75c7.99-5.27,16.2-9.14,24.61-11.61,8.42-2.46,15.52-3.7,21.3-3.7h11.48c11.56,0,20.82,3.49,27.8,10.46,6.97,6.97,10.46,16.24,10.46,27.8v99.47h-44.64v-91.82c0-2.55-.85-4.68-2.55-6.38-1.7-1.7-3.83-2.55-6.38-2.55h-8.93Z"/>
        <path class="cls-2" d="M966.24,254.66l-2.55-12.75c-8,5.27-16.2,9.14-24.61,11.61-8.42,2.46-15.52,3.7-21.3,3.7h-11.48c-11.57,0-20.83-3.48-27.8-10.46-6.97-6.97-10.46-16.24-10.46-27.8v-58.66c0-12.76,3.61-22.74,10.84-29.97,7.22-7.23,17.22-10.84,29.97-10.84h52.29v-43.36h44.63v178.54h-39.53ZM930.53,220.23c9.01,0,19.22-1.7,30.61-5.1v-61.21h-38.26c-6.8,0-10.2,3.4-10.2,10.2v47.19c0,2.55.85,4.68,2.55,6.38,1.7,1.7,3.82,2.55,6.38,2.55h8.93Z"/>
        <path class="cls-2" d="M1033.83,76.12h107.13c17.86,0,30.82,4.04,38.9,12.12,8.07,8.08,12.11,21.04,12.11,38.9v22.95c0,14.12-2.34,25.08-7.01,32.9-4.68,7.82-12.12,13.01-22.32,15.56l31.88,56.11h-49.74l-29.33-53.56h-35.71v53.56h-45.91V76.12ZM1146.06,127.13c0-10.2-5.1-15.3-15.3-15.3h-51.02v53.56h51.02c10.2,0,15.3-5.1,15.3-15.31v-22.95Z"/>
        <path class="cls-2" d="M1221.29,122.03c31.12-3.4,59.18-5.1,84.17-5.1,11.56,0,20.82,3.49,27.8,10.46,6.97,6.97,10.46,16.24,10.46,27.8v99.47h-39.53l-2.55-12.75c-7.99,5.27-16.2,9.14-24.61,11.61-8.42,2.46-15.52,3.7-21.3,3.7h-8.93c-11.57,0-20.83-3.48-27.8-10.46-6.97-6.97-10.46-16.24-10.46-27.8v-11.48c0-11.56,3.48-20.83,10.46-27.8,6.97-6.97,16.24-10.46,27.8-10.46h52.29v-10.2c0-2.55-.86-4.68-2.55-6.38-1.7-1.7-3.82-2.55-6.38-2.55-11.05,0-23.25.51-36.6,1.53-13.35,1.02-24.1,1.79-32.27,2.3v-31.88ZM1268.48,221.5c9.01,0,19.21-1.7,30.61-5.1v-15.3h-36.98c-2.55,0-4.68.85-6.38,2.55-1.7,1.7-2.55,3.83-2.55,6.38v2.55c0,2.55.85,4.68,2.55,6.37,1.7,1.7,3.82,2.55,6.38,2.55h6.38Z"/>
        <path class="cls-2" d="M1462.33,254.66l-2.55-12.75c-8,5.27-16.2,9.14-24.61,11.61-8.42,2.46-15.52,3.7-21.3,3.7h-11.48c-11.57,0-20.83-3.48-27.8-10.46-6.97-6.97-10.46-16.24-10.46-27.8v-58.66c0-12.76,3.61-22.74,10.84-29.97,7.22-7.23,17.22-10.84,29.97-10.84h52.29v-43.36h44.63v178.54h-39.53ZM1426.62,220.23c9.01,0,19.22-1.7,30.61-5.1v-61.21h-38.26c-6.8,0-10.2,3.4-10.2,10.2v47.19c0,2.55.85,4.68,2.55,6.38,1.7,1.7,3.82,2.55,6.38,2.55h8.93Z"/>
        <path class="cls-2" d="M1533.73,122.03c31.12-3.4,59.18-5.1,84.17-5.1,11.56,0,20.82,3.49,27.8,10.46,6.97,6.97,10.46,16.24,10.46,27.8v99.47h-39.53l-2.55-12.75c-7.99,5.27-16.2,9.14-24.61,11.61-8.42,2.46-15.52,3.7-21.3,3.7h-8.93c-11.57,0-20.83-3.48-27.8-10.46-6.97-6.97-10.46-16.24-10.46-27.8v-11.48c0-11.56,3.48-20.83,10.46-27.8,6.97-6.97,16.24-10.46,27.8-10.46h52.29v-10.2c0-2.55-.86-4.68-2.55-6.38-1.7-1.7-3.82-2.55-6.38-2.55-11.05,0-23.25.51-36.6,1.53-13.35,1.02-24.1,1.79-32.27,2.3v-31.88ZM1580.92,221.5c9.01,0,19.21-1.7,30.61-5.1v-15.3h-36.98c-2.55,0-4.68.85-6.38,2.55-1.7,1.7-2.55,3.83-2.55,6.38v2.55c0,2.55.85,4.68,2.55,6.37,1.7,1.7,3.82,2.55,6.38,2.55h6.38Z"/>
        <path class="cls-2" d="M1756.91,156.47c-10.71,0-21.77,2.55-33.16,7.65v90.55h-44.63V119.48h39.53l2.55,16.58c14.62-12.76,29.93-19.13,45.91-19.13h11.48v39.53h-21.68Z"/>
      </g>
      <g>
        <path class="cls-1" d="M272.57,292.26l-21.56-58.4-11.93,14.22-3.47-3.4c12.87-19.09,20.38-42.06,20.38-66.76,0-61.73-46.95-112.68-107.02-119.04l-.37-4.81h18.56L136.29,0l-30.9,54.06h18.52l-.43,4.82c-60.03,6.39-106.92,57.33-106.92,119.03,0,24.66,7.5,47.6,20.33,66.67l-3.45,3.46-11.91-14.19L0,292.27l61.26-11.09-11.93-14.22,3.97-2.84c21.53,20.74,50.78,33.5,82.98,33.5s61.38-12.73,82.91-33.43l4.02,2.8-11.91,14.19,61.27,11.08ZM136.28,143.48c18.98,0,34.43,15.44,34.43,34.43s-15.45,34.43-34.43,34.43-34.43-15.45-34.43-34.43,15.44-34.43,34.43-34.43ZM154.97,136.61l-2.15-27.92c31.28,7.47,54.62,35.68,54.62,69.23,0,11.42-2.71,22.23-7.52,31.81l-19.98-19.57c1.09-3.9,1.68-8,1.68-12.24,0-18.34-10.94-34.17-26.65-41.3ZM92.34,189.08l-20.01,20.02c-4.62-9.43-7.21-20.01-7.21-31.2,0-33.3,23-61.35,53.96-69.06l-2.48,28.22c-15.17,7.34-25.65,22.89-25.65,40.84,0,3.85.48,7.59,1.4,11.17ZM178.1,235.45c-11.74,8.57-26.2,13.62-41.82,13.62s-30.53-5.22-42.37-14.01l22.74-16.28c5.95,2.87,12.6,4.47,19.63,4.47,6.63,0,12.94-1.43,18.63-4.02l23.19,16.22ZM44.77,236.71c-10.94-16.96-17.3-37.14-17.3-58.79,0-55.32,41.51-101.14,95.02-107.94l-2.41,27.47c-37.54,7.54-65.89,40.76-65.89,80.48,0,14.23,3.63,27.63,10.04,39.31l-19.47,19.49ZM136.28,286.72c-28.52,0-54.53-11.03-73.94-29.06l22.32-15.98c14.11,11.44,32.08,18.3,51.63,18.3s37.16-6.73,51.2-17.97l22.58,15.79c-19.4,17.95-45.33,28.92-73.78,28.92ZM208.05,217.69c6.56-11.79,10.3-25.36,10.3-39.77,0-39.91-28.62-73.25-66.41-80.58l-2.11-27.39c53.62,6.69,95.25,52.56,95.25,107.96,0,21.73-6.39,41.98-17.42,58.98l-19.62-19.21Z"/>
        <circle class="cls-1" cx="136.28" cy="177.06" r="22.3"/>
      </g>
    </g>
  </g>
</svg>