<?xml version="1.0" encoding="UTF-8"?>
<svg id="Layer_2" data-name="Layer 2" xmlns="http://www.w3.org/2000/svg" viewBox="0 0 272.57 297.63">
  <defs>
    <style>
      .cls-1 {
        fill: #2aeaea;
      }
    </style>
  </defs>
  <g id="Layer_1-2" data-name="Layer 1">
    <g>
      <path class="cls-1" d="M272.57,292.26l-21.56-58.4-11.93,14.22-3.47-3.4c12.87-19.09,20.38-42.06,20.38-66.76,0-61.73-46.95-112.68-107.02-119.04l-.37-4.81h18.56L136.29,0l-30.9,54.06h18.52l-.43,4.82c-60.03,6.39-106.92,57.33-106.92,119.03,0,24.66,7.5,47.6,20.33,66.67l-3.45,3.46-11.91-14.19L0,292.27l61.26-11.09-11.93-14.22,3.97-2.84c21.53,20.74,50.78,33.5,82.98,33.5s61.38-12.73,82.91-33.43l4.02,2.8-11.91,14.19,61.27,11.08ZM136.28,143.48c18.98,0,34.43,15.44,34.43,34.43s-15.45,34.43-34.43,34.43-34.43-15.45-34.43-34.43,15.44-34.43,34.43-34.43ZM154.97,136.61l-2.15-27.92c31.28,7.47,54.62,35.68,54.62,69.23,0,11.42-2.71,22.23-7.52,31.81l-19.98-19.57c1.09-3.9,1.68-8,1.68-12.24,0-18.34-10.94-34.17-26.65-41.3ZM92.34,189.08l-20.01,20.02c-4.62-9.43-7.21-20.01-7.21-31.2,0-33.3,23-61.35,53.96-69.06l-2.48,28.22c-15.17,7.34-25.65,22.89-25.65,40.84,0,3.85.48,7.59,1.4,11.17ZM178.1,235.45c-11.74,8.57-26.2,13.62-41.82,13.62s-30.53-5.22-42.37-14.01l22.74-16.28c5.95,2.87,12.6,4.47,19.63,4.47,6.63,0,12.94-1.43,18.63-4.02l23.19,16.22ZM44.77,236.71c-10.94-16.96-17.3-37.14-17.3-58.79,0-55.32,41.51-101.14,95.02-107.94l-2.41,27.47c-37.54,7.54-65.89,40.76-65.89,80.48,0,14.23,3.63,27.63,10.04,39.31l-19.47,19.49ZM136.28,286.72c-28.52,0-54.53-11.03-73.94-29.06l22.32-15.98c14.11,11.44,32.08,18.3,51.63,18.3s37.16-6.73,51.2-17.97l22.58,15.79c-19.4,17.95-45.33,28.92-73.78,28.92ZM208.05,217.69c6.56-11.79,10.3-25.36,10.3-39.77,0-39.91-28.62-73.25-66.41-80.58l-2.11-27.39c53.62,6.69,95.25,52.56,95.25,107.96,0,21.73-6.39,41.98-17.42,58.98l-19.62-19.21Z"/>
      <circle class="cls-1" cx="136.28" cy="177.06" r="22.3"/>
    </g>
  </g>
</svg>